<svg height="32" viewBox="0 0 16 16" width="32" xmlns="http://www.w3.org/2000/svg"><g><circle cx="8" cy="8" r="8" fill="white"/><path fill="black" d="M8 1.75C4.13 1.75 1 4.88 1 8.75c0 3.08 2.01 5.68 4.8 6.6.35.06.48-.15.48-.34 0-.17-.01-.73-.01-1.32-1.96.36-2.53-.48-2.69-.92-.08-.2-.42-.92-.72-1.11-.25-.14-.6-.48-.01-.49.56-.01.96.52 1.09.74.64 1.08 1.67.77 2.08.59.06-.46.25-.77.45-.95-1.74-.2-3.57-.87-3.57-3.86 0-.85.3-1.54.78-2.08-.08-.2-.34-1.01.07-2.1 0 0 .65-.21 2.13.8.62-.17 1.28-.25 1.94-.25.66 0 1.32.09 1.94.25 1.48-1.01 2.13-.8 2.13-.8.41 1.09.15 1.9.07 2.1.48.54.78 1.23.78 2.08 0 2.99-1.83 3.66-3.57 3.86.26.22.48.65.48 1.31 0 .95-.01 1.72-.01 1.95 0 .19.13.41.49.34C12.99 14.43 15 11.83 15 8.75c0-3.87-3.13-7-7-7z"/></g></svg> 