<svg width="410" height="404" viewBox="0 0 410 404" fill="none" xmlns="http://www.w3.org/2000/svg">
  <g>
    <path d="M399.6 44.6c-4.6-17.6-18.2-31.2-35.8-35.8C340.2 4 205 4 205 4s-135.2 0-158.8 4.8C28.6 13.4 15 27 10.4 44.6 5.6 68.2 5.6 120.2 5.6 120.2s0 52 4.8 75.6c4.6 17.6 18.2 31.2 35.8 35.8C69.8 236.2 205 236.2 205 236.2s135.2 0 158.8-4.8c17.6-4.6 31.2-18.2 35.8-35.8 4.8-23.6 4.8-75.6 4.8-75.6s0-52-4.8-75.6z" fill="#646CFF"/>
    <path d="M205 236.2c-135.2 0-158.8-4.8-158.8-4.8s-13.6-13.6-18.2-31.2C5.6 172.2 5.6 120.2 5.6 120.2s0-52 4.8-75.6C15 27 28.6 13.4 46.2 8.8 69.8 4 205 4 205 4s135.2 0 158.8 4.8c17.6 4.6 31.2 18.2 35.8 35.8 4.8 23.6 4.8 75.6 4.8 75.6s0 52-4.8 75.6c-4.6 17.6-18.2 31.2-35.8 35.8-23.6 4.8-158.8 4.8-158.8 4.8z" fill="#747BFF"/>
    <path d="M205 236.2c-135.2 0-158.8-4.8-158.8-4.8s-13.6-13.6-18.2-31.2C5.6 172.2 5.6 120.2 5.6 120.2s0-52 4.8-75.6C15 27 28.6 13.4 46.2 8.8 69.8 4 205 4 205 4s135.2 0 158.8 4.8c17.6 4.6 31.2 18.2 35.8 35.8 4.8 23.6 4.8 75.6 4.8 75.6s0 52-4.8 75.6c-4.6 17.6-18.2 31.2-35.8 35.8-23.6 4.8-158.8 4.8-158.8 4.8z" fill="url(#paint0_linear)"/>
    <path d="M205 236.2c-135.2 0-158.8-4.8-158.8-4.8s-13.6-13.6-18.2-31.2C5.6 172.2 5.6 120.2 5.6 120.2s0-52 4.8-75.6C15 27 28.6 13.4 46.2 8.8 69.8 4 205 4 205 4s135.2 0 158.8 4.8c17.6 4.6 31.2 18.2 35.8 35.8 4.8 23.6 4.8 75.6 4.8 75.6s0 52-4.8 75.6c-4.6 17.6-18.2 31.2-35.8 35.8-23.6 4.8-158.8 4.8-158.8 4.8z" fill="url(#paint1_linear)"/>
    <path d="M205 236.2c-135.2 0-158.8-4.8-158.8-4.8s-13.6-13.6-18.2-31.2C5.6 172.2 5.6 120.2 5.6 120.2s0-52 4.8-75.6C15 27 28.6 13.4 46.2 8.8 69.8 4 205 4 205 4s135.2 0 158.8 4.8c17.6 4.6 31.2 18.2 35.8 35.8 4.8 23.6 4.8 75.6 4.8 75.6s0 52-4.8 75.6c-4.6 17.6-18.2 31.2-35.8 35.8-23.6 4.8-158.8 4.8-158.8 4.8z" fill="url(#paint2_linear)"/>
    <path d="M205 236.2c-135.2 0-158.8-4.8-158.8-4.8s-13.6-13.6-18.2-31.2C5.6 172.2 5.6 120.2 5.6 120.2s0-52 4.8-75.6C15 27 28.6 13.4 46.2 8.8 69.8 4 205 4 205 4s135.2 0 158.8 4.8c17.6 4.6 31.2 18.2 35.8 35.8 4.8 23.6 4.8 75.6 4.8 75.6s0 52-4.8 75.6c-4.6 17.6-18.2 31.2-35.8 35.8-23.6 4.8-158.8 4.8-158.8 4.8z" fill="url(#paint3_linear)"/>
    <path d="M205 236.2c-135.2 0-158.8-4.8-158.8-4.8s-13.6-13.6-18.2-31.2C5.6 172.2 5.6 120.2 5.6 120.2s0-52 4.8-75.6C15 27 28.6 13.4 46.2 8.8 69.8 4 205 4 205 4s135.2 0 158.8 4.8c17.6 4.6 31.2 18.2 35.8 35.8 4.8 23.6 4.8 75.6 4.8 75.6s0 52-4.8 75.6c-4.6 17.6-18.2 31.2-35.8 35.8-23.6 4.8-158.8 4.8-158.8 4.8z" fill="url(#paint4_linear)"/>
    <path d="M205 236.2c-135.2 0-158.8-4.8-158.8-4.8s-13.6-13.6-18.2-31.2C5.6 172.2 5.6 120.2 5.6 120.2s0-52 4.8-75.6C15 27 28.6 13.4 46.2 8.8 69.8 4 205 4 205 4s135.2 0 158.8 4.8c17.6 4.6 31.2 18.2 35.8 35.8 4.8 23.6 4.8 75.6 4.8 75.6s0 52-4.8 75.6c-4.6 17.6-18.2 31.2-35.8 35.8-23.6 4.8-158.8 4.8-158.8 4.8z" fill="url(#paint5_linear)"/>
  </g>
  <defs>
    <linearGradient id="paint0_linear" x1="205" y1="4" x2="205" y2="236.2" gradientUnits="userSpaceOnUse">
      <stop stop-color="#646CFF"/>
      <stop offset="1" stop-color="#747BFF"/>
    </linearGradient>
    <linearGradient id="paint1_linear" x1="205" y1="4" x2="205" y2="236.2" gradientUnits="userSpaceOnUse">
      <stop stop-color="#747BFF"/>
      <stop offset="1" stop-color="#646CFF"/>
    </linearGradient>
    <linearGradient id="paint2_linear" x1="205" y1="4" x2="205" y2="236.2" gradientUnits="userSpaceOnUse">
      <stop stop-color="#646CFF"/>
      <stop offset="1" stop-color="#747BFF"/>
    </linearGradient>
    <linearGradient id="paint3_linear" x1="205" y1="4" x2="205" y2="236.2" gradientUnits="userSpaceOnUse">
      <stop stop-color="#747BFF"/>
      <stop offset="1" stop-color="#646CFF"/>
    </linearGradient>
    <linearGradient id="paint4_linear" x1="205" y1="4" x2="205" y2="236.2" gradientUnits="userSpaceOnUse">
      <stop stop-color="#646CFF"/>
      <stop offset="1" stop-color="#747BFF"/>
    </linearGradient>
    <linearGradient id="paint5_linear" x1="205" y1="4" x2="205" y2="236.2" gradientUnits="userSpaceOnUse">
      <stop stop-color="#747BFF"/>
      <stop offset="1" stop-color="#646CFF"/>
    </linearGradient>
  </defs>
</svg> 